<svg width="512" height="512" viewBox="0 0 512 512" fill="none" xmlns="http://www.w3.org/2000/svg">
<g clip-path="url(#clip0_17_5)">
<path d="M253 512C391.071 512 503 400.071 503 262C503 123.929 391.071 12 253 12C114.929 12 3 123.929 3 262C3 400.071 114.929 512 253 512Z" fill="#85D6E2"/>
<path fill-rule="evenodd" clip-rule="evenodd" d="M52.5 115C53.595 115.959 103.5 138.5 103.5 138.5L161 117L114 93L52.5 115ZM43.5 143C38.12 146.662 34 152.86 34 158.5C34 164.14 39.12 172.338 44.5 176C53.742 182.29 74 172.551 74 161C74 152.826 64.112 143 56 143C53.286 143 45.634 141.548 43.5 143ZM68.5 203H129L170 163H103L68.5 203ZM138.481 232H239L237.5 246.411V316.475C258.114 294.924 287.766 279.591 317 275H400L401.243 200H171L138.481 232ZM150 246L150.5 368H180.253H223.5V246H150ZM337.164 314.509C333.13 315.24 328.35 316.65 328 317C326.7 318.299 326.92 331.853 328.5 335.5C331.838 343.208 348.979 355 355 355C356.943 355 353.724 351.15 351 345.75C346.383 336.595 347.622 325.254 353.5 317L354.5 312.5C348.633 312.5 342.937 313.463 337.164 314.509ZM280.969 345.75C272.299 355.553 265.305 367.581 261.055 379.998L258.5 386.5L261.055 389.5C266.263 393.848 271.715 396.556 279 397C287.663 397.527 294.573 394.512 301 388.5C311.899 378.305 312.396 360.241 302.5 349C298.396 344.337 291.76 340.5 288 340.5C286.752 340.5 283.467 342.926 280.969 345.75ZM360 355L293.5 411L352 468L416 417L360 355ZM150 403H203.381L206.5 384L150 384.5V403ZM155.5 449H209.5L204.5 420H147L155.5 449ZM286.684 422C278.217 424.796 258.5 434 258.5 434L261.427 444C265.869 456.654 272.877 468.377 281.803 478.084L290 485.5L319.5 465.5L309 434L286.684 422ZM404.713 444C402.387 448.555 400.287 464.5 402.5 463C402.5 463 419.447 448.531 423 445.5L410.5 436.185L404.713 444ZM366 465.5L325 478.084V501.5L380 478.084L366 465.5ZM212.107 481.75C210.28 485.462 206.388 492.183 203.458 496.685L198.13 504.869L204.815 506.376C214.003 508.448 243.5 511.5 243.5 511.5C243.5 511.5 218.521 473.985 216 469C215.896 469 213.934 478.038 212.107 481.75Z" fill="#7E57C2"/>
<path fill-rule="evenodd" clip-rule="evenodd" d="M52.5 411.538C67 430.5 79.5 442.5 91.5 453L130.064 449H168.392L163.849 446.119C156.721 441.599 153.157 435.39 151.581 424.75L151 249L150.909 232L151.59 228.25C153.418 218.177 161.955 207.847 174.5 202.5H59L52.5 411.538ZM345.898 399.27C341.969 401.895 339.004 407.169 339.002 411.538C338.999 416.225 343.004 423.085 347 425.238C353.643 428.816 362.301 426.495 367.304 419.795C371.637 413.991 368.88 402.702 362.165 398.75C357.828 396.198 350.129 396.444 345.898 399.27Z" fill="#4C3474"/>
<path fill-rule="evenodd" clip-rule="evenodd" d="M32.83 138.69C26.426 145.385 24.498 150.318 24.5 160C24.502 167.286 24.886 169.232 27.191 173.623C30.619 180.157 37.734 186.427 44.129 188.552C50.554 190.686 61.91 190.175 67.411 187.506L73.5 184L68.5 181C58.3322 178.365 65.9445 172.752 63 173.623C62.188 173.862 56.372 175.368 53.803 175.364C48.47 175.356 43.029 171.941 40.473 166.998C37.615 161.472 39.072 152.654 43.441 149.027L48 145.5C46.227 144.02 41.061 140.744 40.473 138.69V133L32.83 138.69ZM91 231.5C82.5 235 82.5 246.5 91 249.5H369.86C376.814 246.5 376.814 234 369.86 231.5H91ZM350.74 319.603C347.955 325.485 347.474 327.604 347.475 334C347.476 340.462 347.894 342.261 350.495 347L354.006 354H361.862C377.415 353.617 389.315 335.645 386.474 320.5C385.841 317.127 383.703 317.099 376.814 315.532C370.677 314.136 364.409 313.592 358.168 312.906L354.474 312.5L350.74 319.603ZM414.5 342.5C404.887 348.257 401.696 356.843 401 367.5C400.601 373.599 402.369 376.845 404.5 381.5C409.49 392.398 420.112 397.874 432.5 398.5C439.392 398.848 441.547 399.095 446.5 396.672L450.189 390.748L449.54 386.686C448.629 380.989 443.579 368.693 438.99 361C435.109 354.492 424.417 340.997 423.148 341.004C422.777 341.006 416.425 341.348 414.5 342.5ZM346.474 360.5C334.352 364.832 308.391 390.057 302.974 402C292.95 424.096 326.943 454.279 342.974 462.5C369.656 476.179 405.142 438.817 411.31 418C399.873 409.275 369.36 374 355.129 374C353.645 374 349.974 382.24 349.976 385.566C349.976 387.18 350.764 390.04 351.726 391.922C353.1 394.613 354.467 395.628 358.12 396.672C364.019 398.358 368.705 403.467 369.624 409.213C370.051 411.881 371.462 414.652 373.558 416.937C376.619 420.273 377.192 420.491 382.562 420.365L388.296 420.229L373.319 435.115C353.156 455.154 355.922 455.282 333.798 433.295C315.736 415.346 314.306 413.101 317.295 407.371C324.205 394.127 341.825 379.404 354.974 372L355.129 361C355.129 361 351.857 358.576 346.474 360.5ZM92.883 385C92.883 385 180.889 385 211 385V367.5H92.474C85 369.5 85 383 92.883 385ZM92.883 401.5C84.5 404 84 417.5 92.883 420.5H206.5V401.5H92.883ZM424 426.5C418.347 428.288 413.698 431.611 411 434.5C408.819 436.835 409.912 437.979 411.31 440.683C412.795 443.555 418.385 444.196 423 445.5C423 445.5 437.341 431.893 443 425C439.27 423.953 428.339 425.128 424 426.5Z" fill="#5F4192"/>
<path fill-rule="evenodd" clip-rule="evenodd" d="M343.228 8.683C330.431 13.407 317.078 18.091 317.5 18.5L368 42L384.495 33.406C384.495 33.406 374.455 3.753 371.903 1.656C370.732 0.693002 369.036 -0.0519985 368.134 1.53272e-06C367.233 0.0520015 356.025 3.959 343.228 8.683ZM213 56.5L263 80C263 80 316.536 61.648 316.5 61C316.441 59.949 266.5 37 266.5 37L213 56.5ZM155.5 77.5C153.583 83 154.726 94.933 157.5 100.5C160.262 106.042 164.006 108.441 171 110.904L176 112L195.049 105.17C203.744 102.015 214.1 98.596 214 98.5C213.712 98.219 160.5 75.5 160.5 75.5L155.5 77.5ZM160 202.906H185.5L226 162.906H201.825H176L160 202.906ZM236 202.906H298L337 163.127H276L236 202.906ZM348.5 202.906H377.599C401.601 202.906 403.817 202.76 405.34 201.077C406.74 199.531 406.995 196.695 406.995 182.7C406.995 163.453 407.105 163.682 397.64 163.127H387.5L348.5 202.906ZM344.495 258.585C338.696 259.082 321.865 261.68 317.495 262.906C313.883 263.919 314.995 264.163 314.995 268.437C314.995 271.899 315.599 273.52 317.745 275.812L323.495 276.906L329.495 276.735C341.949 273.949 368.683 273.692 381.369 276.237C423.961 284.781 459.226 311.023 478.879 348.8C481.242 353.342 483.334 356.9 483.528 356.706C484.49 355.744 489.996 339.482 490 337.588C490.01 333.287 477 315.789 464.556 303.366C443.081 281.929 419.613 268.844 390.495 262.072C376.386 258.791 358.188 257.412 344.495 258.585Z" fill="#E9EFFF"/>
<path fill-rule="evenodd" clip-rule="evenodd" d="M304.5 267.39C282.576 275.406 265.416 286.443 248.464 303.436C225.805 326.147 212.647 350.414 205.866 382C202.628 397.079 202.597 426.806 205.804 441.648C211.049 465.923 222.941 491.382 236.734 507.859L239.546 511.219L251.023 511.755L262.5 512.291L255.459 504.863C239.16 487.666 231.75 465.033 226 440C223.386 428.62 220.233 413.662 221.853 401.5C228.788 349.439 260.47 302.217 310 284.5L323.5 277.219C318.002 274.5 314 270 317.539 263C317.539 263 309.45 265.58 304.5 267.39ZM323.5 277.219L310 284.5C308.962 290.779 317.858 293.076 320 297.5C321.587 300.779 324.04 302.81 328 304.783L333 307L337.45 303.059C348.037 292.834 367.17 293.664 377.193 304.783C383.503 311.782 384.492 314.456 384.492 324.5C384.492 334.313 383.54 337.037 377.844 343.525C373.112 348.915 364.939 352.871 358 353.5L351.5 353C350.751 355.983 350.5 361 350.5 361C351.825 361 359.967 362.151 362 363C366.698 364.963 397.52 396.999 400.388 402.5C404.191 409.795 405.958 418.59 400.388 427.142C398.93 429.382 396.954 430.476 398 433C399.207 435.915 401.894 441.648 405 441.648C405.858 441.648 410.073 436.906 411.125 435.569C412.176 434.232 415.841 431.728 419.268 430.006C424.891 427.18 426.259 426.902 433.262 427.154L441.024 427.434L445.137 422.467C457.293 407.788 469.518 388.186 478.355 369.206L484 356C473.119 332.739 456.936 313.63 435.5 299C419.17 287.855 397.013 277.758 377.844 274.5C367.946 272.818 331.91 275.795 323.5 277.219ZM443.967 342.081C462.229 349.937 466.51 374.802 452.022 388.863C435.301 405.089 407.889 395.481 403.494 371.852C402.502 366.52 404.676 357.705 408.319 352.292C416.326 340.391 430.56 336.314 443.967 342.081Z" fill="#D1C4E9"/>
<path fill-rule="evenodd" clip-rule="evenodd" d="M134.825 84.854C121.803 89.619 110.883 93.783 110.559 94.108C110.234 94.433 121.233 99.929 135 106.322L160.033 117.946L169.144 114.657L178.255 111.369L173.417 109.521C170.663 108.47 166.561 105.656 163.895 102.991C158.013 97.108 156.1 90.422 157.901 82.028C158.528 79.102 158.92 76.592 158.771 76.449C158.622 76.307 147.846 80.089 134.825 84.854ZM48.508 116.133C41.264 119.07 40.71 119.734 41.281 124.798C41.928 130.54 42.729 131.19 47.53 129.864C59.011 126.694 72.796 132.322 80.622 143.375L82.658 146.25L93.079 142.478C98.81 140.403 103.854 138.395 104.286 138.016C105.005 137.387 56.036 113.929 54.267 114.055C53.845 114.085 51.254 115.02 48.508 116.133ZM84.528 166.703C82.184 179.196 68.549 191 56.462 191C53.044 191 53 191.055 53 195.345C53 201.58 54.965 203 63.588 203H70.519L89.76 183.741C100.342 173.148 109 164.148 109 163.741C109 163.333 103.65 163 97.111 163H85.223L84.528 166.703ZM147.5 183L127.519 203H153.753H179.987L176.585 198.544C174.715 196.093 172.639 192.437 171.973 190.419C169.805 183.848 172.342 174.683 178.665 166.25L181.102 163H174.292H167.481L147.5 183ZM310 282.898C284.414 292.452 263.734 307.74 247.639 329C231.112 350.83 222.265 373.893 220.104 400.782C216.997 439.432 230.155 477.074 256.781 505.71L262.556 511.921L270.028 511.387C288.434 510.073 307.373 506.863 322.75 502.451L328 500.944L328.01 496.722C328.015 494.395 329.086 490.21 330.395 487.398C335.294 476.877 344.756 470.645 355.972 470.554C363.172 470.494 367.375 471.86 373.709 476.318L377.917 479.28L384.709 475.118C388.444 472.829 394.169 469.053 397.431 466.728L403.362 462.5L403.505 455.316C403.617 449.699 404.221 447.026 406.276 443.066L408.904 438H406.587C403.54 438 399 434.366 399 431.927C399 430.867 398.656 430 398.237 430C397.817 430 391.179 436.348 383.487 444.106C368.321 459.401 362.955 462.973 355.116 462.99C345.593 463.011 343.669 461.765 325.126 443.558C306.551 425.321 303.029 420.355 303.01 412.376C302.989 403.555 304.978 400.592 323.282 382.18C340.207 365.155 345.518 361 350.355 361C352.458 361 352.841 360.465 353.165 357.068C353.528 353.263 353.427 353.116 350.02 352.494C342.269 351.079 333.641 343.822 329.89 335.565C326.945 329.08 327.323 318.696 330.75 311.929L333.5 306.5L329.032 304C326.574 302.625 323.498 299.925 322.196 298C320.135 294.951 319.875 293.565 320.184 287.25C320.602 278.714 320.882 278.834 310 282.898ZM293.682 342.563C311.834 351.38 315.001 375.823 299.767 389.52C288.364 399.772 271.456 399.298 260.579 388.421C249.886 377.728 249.246 360.818 259.11 349.613C268.229 339.253 281.356 336.576 293.682 342.563ZM292.602 429.395C303.334 434.392 309.355 443.774 309.355 455.5C309.355 471.455 297.093 483.965 281.428 483.99C269.72 484.009 261.066 478.965 255.468 468.859C252.871 464.17 252.5 462.5 252.5 455.5C252.5 448.5 252.871 446.83 255.468 442.141C258.976 435.808 264.673 430.643 270.385 428.617C276.998 426.272 286.618 426.609 292.602 429.395Z" fill="#D8CCED"/>
<path fill-rule="evenodd" clip-rule="evenodd" d="M311.59 20.81C308.29 22.064 296.684 26.374 285.798 30.387L266.006 37.685L316.877 61.429L342.233 52.267L368.09 42.433C368.09 42.433 319.475 18.306 318.09 18.471C317.815 18.504 314.89 19.557 311.59 20.81ZM187.205 66.287L160.59 75.933L171.705 80.959C177.692 83.763 189.162 89.111 197.194 92.843L211.798 99.629L237.444 90.311C251.549 85.186 263.09 80.707 263.09 80.358C263.09 79.814 245.692 71.45 220.59 59.928L213.59 56.715L187.205 66.287ZM43.09 132.26C37.934 134.229 36.874 137.18 39.5 142.258C41.023 145.204 46.566 148.089 47.573 146.46C48.732 144.585 55.753 144.314 59.925 145.984C70.658 150.278 73.48 163.243 65.433 171.29C62.457 174.266 62.024 175.265 62.532 177.974C63.253 181.816 65.688 184.203 69.711 185.007C72.303 185.526 73.209 185.044 76.508 181.392C82.383 174.89 84.549 169.243 84.549 160.433C84.549 147.907 78.693 138.526 67.599 133.277C60.394 129.869 50.435 129.455 43.09 132.26ZM202.59 183.433L182.609 203.433H210.609H238.609L258.59 183.433L278.571 163.433H250.571H222.571L202.59 183.433ZM314.59 183.433L294.609 203.433H322.609H350.609L370.59 183.433L390.571 163.433H362.571H334.571L314.59 183.433ZM222 338C227 329 230 325 238 315L238.09 249.933H222.59L222 338ZM92.405 261.44C87.668 263.349 86.666 270.1 90.545 273.978L92.999 276.433H114.61C126.533 276.433 137.027 276.002 138.019 275.471C139.007 274.942 140.382 273.142 141.074 271.471C142.671 267.617 141.066 263.199 137.475 261.563C134.505 260.209 95.722 260.104 92.405 261.44ZM156.405 261.44C151.668 263.349 150.666 270.1 154.545 273.978C156.719 276.153 157.864 276.433 164.59 276.433C171.316 276.433 172.461 276.153 174.635 273.978C176.183 272.431 177.09 270.381 177.09 268.433C177.09 266.485 176.183 264.435 174.635 262.888C172.494 260.746 171.313 260.441 165.385 260.496C161.648 260.531 157.607 260.956 156.405 261.44ZM353.251 363.98C350.851 369.247 352.779 374.433 357.137 374.433C358.813 374.433 363.989 378.978 375.647 390.683C393.449 408.558 394.352 410.089 391.083 416.832C389.381 420.345 389.338 421.012 390.652 423.553C393.726 429.498 398.108 429.874 401.665 424.5C405.107 419.297 406.037 410.2 403.74 404.189C401.327 397.873 368.314 365.1 362.214 362.965C356.178 360.852 354.594 361.031 353.251 363.98Z" fill="#9E80D1"/>
</g>
<defs>
<clipPath id="clip0_17_5">
<rect width="512" height="512" fill="white"/>
</clipPath>
</defs>
</svg>
